# xmcd CD database file
# Copyright (C) 1993-1998 Ti Kan
#
# Track frame offsets:
#	182
#	8915
#	25340
#	33240
#	48330
#	59432
#	73380
#	84687
#	94312
#	112287
#	122432
#	136877
#	148685
#	162495
#	175185
#	187642
#	209612
#	229210
#
# Disc length: 3376 seconds
#
# Revision: 3
# Processed by: cddbd v1.4b41PL1 Copyright (c) Steve Scherf et al.
# Submitted via: QuintessentialCD v1.0 (c) 1998 Paul Quinn
#
DISCID=060d2e12
DTITLE=Dr. Demento - 25th Anniversary Collection - Disc 2
DYEAR=1900
DGENRE=
TTITLE0=Particle Man 
TTITLE1=Sensitive New Age Guys
TTITLE2=The Hunting Song
TTITLE3=Achy Breaky Song
TTITLE4=In Heaven There Is No Beer 
TTITLE5=I Gotta Get A Fake I.D
TTITLE6=Peter The Meter Reader
TTITLE7=Everybody Wants My Fanny 
TTITLE8=Entering Marion
TTITLE9='Cause I'm A Blonde 
TTITLE10=Leader Of The Laundromat 
TTITLE11=Song Of The Sewer 
TTITLE12=Mr. Custer 
TTITLE13=Second Week Of Deer Camp
TTITLE14=Timothy
TTITLE15=Stardrek
TTITLE16=Three Little Pigs
TTITLE17=Moose Turd Pie 
EXTD=
EXTT0=
EXTT1=
EXTT2=
EXTT3=
EXTT4=
EXTT5=
EXTT6=
EXTT7=
EXTT8=
EXTT9=
EXTT10=
EXTT11=
EXTT12=
EXTT13=
EXTT14=
EXTT15=
EXTT16=
EXTT17=
PLAYORDER=
